<svg width="23" height="25" viewBox="0 0 23 25" fill="none" xmlns="http://www.w3.org/2000/svg">
<g clip-path="url(#clip0_592_1467)">
<path d="M19.3206 20.9998V5.34509C19.3206 4.50637 18.6407 3.82573 17.8028 3.82573H5.34009C4.50222 3.82573 3.82228 4.50637 3.82228 5.34509V19.4805C3.82228 20.3192 4.50222 20.9998 5.34009 20.9998H12.6923C14.5873 20.9998 16.1227 22.5368 16.1227 24.4338H3.92756C1.97546 24.4338 0.391846 22.8485 0.391846 20.8944V3.93112C0.391846 1.97702 1.97546 0.391785 3.92756 0.391785H19.2154C21.1675 0.391785 22.7511 1.97702 22.7511 3.93112V24.4338C20.856 24.4338 19.3206 22.8968 19.3206 20.9998Z" fill="#004AAD"/>
<path d="M14.8373 7.50122H8.30546C7.82333 7.50122 7.4325 7.89246 7.4325 8.37508V16.4462C7.4325 16.9288 7.82333 17.32 8.30546 17.32H14.8373C15.3194 17.32 15.7103 16.9288 15.7103 16.4462V8.37508C15.7103 7.89246 15.3194 7.50122 14.8373 7.50122Z" fill="#252525"/>
</g>
<defs>
<clipPath id="clip0_592_1467">
<rect width="22.3548" height="24.042" fill="white" transform="translate(0.391846 0.391785)"/>
</clipPath>
</defs>
</svg>
